PathFileType	4	(X/Y/Z)	Walk8.trc
DataRate	CameraRate	NumFrames	NumMarkers	Units	OrigDataRate	OrigDataStartFrame	OrigNumFrames
200.000000	200.000000	4	59	mm	200.000000	408	526
Frame#	Times		LFHD		RFHD		RBHD		C7		T10		CLAV		STRN		RBack		LASI		RASI		RPSI		RACR1		RUA1		RElbow		RFA1		RWRR		RWRU		RCAR		LACR1		LUA1		LFA1		LWRR		LCAR		RTH1		RTH3		RTH2		RTH4		RLFC		LTH1		LTH3		LTH2		LTH4		LLFC		LTB1		LTB3		LTB2		LTB4		LMMAL		LMT1		LMT5		LToe		LLMAL		RTB1		LPSI		LElbow		RTB2		RTB4		LBHD		RMT1		RToe		RTB3		RElbowM		LCAL		LElbowM		LWRU		RLMAL		RCAL		RMT5		RMMAL
			X1	Y1	Z1	X2	Y2	Z2	X3	Y3	Z3	X4	Y4	Z4	X5	Y5	Z5	X6	Y6	Z6	X7	Y7	Z7	X8	Y8	Z8	X9	Y9	Z9	X10	Y10	Z10	X11	Y11	Z11	X12	Y12	Z12	X13	Y13	Z13	X14	Y14	Z14	X15	Y15	Z15	X16	Y16	Z16	X17	Y17	Z17	X18	Y18	Z18	X19	Y19	Z19	X20	Y20	Z20	X21	Y21	Z21	X22	Y22	Z22	X23	Y23	Z23	X24	Y24	Z24	X25	Y25	Z25	X26	Y26	Z26	X27	Y27	Z27	X28	Y28	Z28	X29	Y29	Z29	X30	Y30	Z30	X31	Y31	Z31	X32	Y32	Z32	X33	Y33	Z33	X34	Y34	Z34	X35	Y35	Z35	X36	Y36	Z36	X37	Y37	Z37	X38	Y38	Z38	X39	Y39	Z39	X40	Y40	Z40	X41	Y41	Z41	X42	Y42	Z42	X43	Y43	Z43	X44	Y44	Z44	X45	Y45	Z45	X46	Y46	Z46	X47	Y47	Z47	X48	Y48	Z48	X49	Y49	Z49	X50	Y50	Z50	X51	Y51	Z51	X52	Y52	Z52	X53	Y53	Z53	X54	Y54	Z54	X55	Y55	Z55	X56	Y56	Z56	X57	Y57	Z57	X58	Y58	Z58	X59	Y59	Z59

408	2.04	521.68	1582.1	-18.033	530.96	1584.4	54.573	361.67	1544.4	96.797	356.91	1415.8	21.647	328.73	1130	21.795	483.59	1341.3	11.88	569.19	1120	15.003	319.81	1308.5	120.71	516.25	940.2	-115.26	517.34	944.3	158.89	305.44	975.7	83.004	438.89	1350.8	187.58	461.33	1141.6	251.99	471.85	1034.2	277.1	584.96	929.63	254.88	642.37	851.44	199.32	608.93	818.9	256.51	668.42	806.43	241.99	414.45	1353.1	-155.14	367.53	1149.2	-201.41	370.54	907.54	-233.76	380.03	788.33	-200.09	366.76	745.64	-241.78	410.09	740.66	194.03	389.34	557.35	149.91	465.14	652.49	140.81	399.11	648.64	169.54	364.88	452.67	134.19	456.12	734.85	-158.41	521.56	561.08	-133.88	552.88	669.88	-112.49	489.4	643.9	-148.7	553.23	462.26	-120.01	623.21	380.8	-50.706	668	198.59	-58.794	612.9	284.45	-122.14	647.56	288.67	-58.822	682.59	96.796	-26.072	815.66	94.656	-78.149	779.39	62.561	-137.76	848.35	103.21	-105.18	663.44	75.649	-103.72	348.02	328.13	54.151	304.21	963.89	-31.172	332.93	1034.2	-213.61	298.27	248.32	120.87	304.5	245.92	49.641	351.76	1551	-29.939	333.97	36.929	48.254	377.31	26.993	86.231	261.19	164.32	44.85	445.8	1005.6	198.14	634.32	30.093	-44.876	321.4	1020	-144.04	324.6	794.18	-246.94	184.77	77.402	92.897	132.42	51.767	45.472	285.83	21.924	131.95	205.01	89.733	13.154
409	2.045	527.3	1581.2	-18.536	536.52	1583.6	54.075	367.23	1543.4	96.188	362.67	1414.9	21.094	334.36	1129.1	21.201	489.34	1340.3	11.457	574.94	1119	14.869	325.4	1307.8	120.18	522.28	939.08	-115.18	522.37	943.73	159.24	311.02	974.71	82.259	444.49	1349.9	187.14	467.25	1140.9	251.58	478.16	1033.5	276.79	591.63	929.29	254.44	649.21	851.27	198.86	615.99	818.67	256.14	675.54	806.44	241.56	420.3	1352	-155.61	372.65	1148.2	-201.72	374.51	906.58	-234.01	383.44	787.3	-200.45	369.82	744.71	-242.07	414.92	740.02	194.01	393.37	556.76	149.91	469.44	651.5	140.49	403.58	648.06	169.58	368.17	452.18	134.12	461.83	733.72	-158.7	526.83	559.83	-133.84	558.18	668.56	-112.16	494.9	642.7	-148.81	558.85	461.15	-120.09	630	380.64	-50.697	677.88	199.1	-58.948	621.38	284.14	-122.25	655.97	288.9	-58.905	694.25	97.504	-26.209	827.46	97.397	-78.3	791.83	64.573	-137.86	860.16	106.45	-105.17	675.42	76.046	-103.89	350.44	327.62	54.213	310.1	962.84	-31.879	337.59	1033.4	-213.77	299.9	248.28	120.89	306.24	245.76	49.663	357.42	1550	-30.555	334.06	36.868	48.221	377.37	26.938	86.252	262.27	164.5	44.89	452.22	1004.7	197.81	647.03	29.906	-45.048	326.09	1019.3	-144.22	327.92	793.48	-247.16	185.13	78.191	92.869	132.65	52.929	45.45	285.82	21.939	131.85	205.53	90.375	13.178
410	2.05	532.93	1580.3	-19.062	542.1	1582.8	53.554	372.81	1542.4	95.554	368.46	1414	20.513	340.03	1128.2	20.584	495.12	1339.3	11.001	580.7	1118	14.705	331.02	1307	119.62	528.36	937.99	-115.1	527.44	943.16	159.53	316.64	973.72	81.493	450.12	1349	186.67	473.18	1140.1	251.14	484.43	1032.8	276.46	598.23	928.91	253.99	655.96	851.03	198.41	622.96	818.39	255.79	682.55	806.38	241.15	426.19	1350.9	-156.11	377.82	1147.3	-202.07	378.55	905.63	-234.27	386.91	786.28	-200.8	372.97	743.78	-242.37	419.78	739.39	193.98	397.44	556.17	149.91	473.8	650.51	140.17	408.09	647.47	169.6	371.51	451.71	134.06	467.69	732.66	-159	532.32	558.68	-133.78	563.66	667.36	-111.82	500.58	641.59	-148.9	564.6	460.1	-120.16	636.74	380.44	-50.673	687.32	199.52	-59.045	629.6	283.82	-122.33	664.12	289.04	-58.951	705.25	98.124	-26.278	838.55	99.838	-78.404	803.5	66.329	-137.89	871.25	109.33	-105.14	686.7	76.39	-103.99	352.91	327.11	54.289	316.02	961.8	-32.608	342.31	1032.6	-213.96	301.55	248.27	120.92	308	245.63	49.704	363.09	1548.9	-31.195	334.15	36.813	48.192	377.44	26.883	86.258	263.38	164.73	44.956	458.58	1003.8	197.47	658.96	29.739	-45.136	330.83	1018.6	-144.44	331.32	792.78	-247.39	185.5	79.028	92.87	132.9	54.151	45.466	285.82	21.949	131.75	206.07	91.068	13.237
411	2.055	538.58	1579.5	-19.612	547.69	1581.9	53.008	378.41	1541.4	94.894	374.27	1413.1	19.902	345.72	1127.4	19.945	500.94	1338.3	10.511	586.49	1117	14.507	336.69	1306.2	119.03	534.5	936.93	-115.03	532.55	942.59	159.78	322.31	972.73	80.708	455.79	1348.1	186.17	479.13	1139.3	250.68	490.66	1032	276.11	604.76	928.48	253.55	662.62	850.72	197.97	629.82	818.05	255.44	689.46	806.24	240.75	432.11	1349.8	-156.64	383.03	1146.3	-202.46	382.66	904.67	-234.55	390.46	785.28	-201.16	376.2	742.86	-242.68	424.69	738.77	193.95	401.58	555.58	149.9	478.22	649.53	139.86	412.65	646.88	169.61	374.9	451.24	134	473.7	731.68	-159.29	538.04	557.65	-133.7	569.31	666.29	-111.47	506.46	640.58	-148.98	570.5	459.13	-120.22	643.43	380.17	-50.635	696.3	199.81	-59.082	637.57	283.47	-122.36	672.01	289.08	-58.959	715.55	98.621	-26.279	848.92	101.93	-78.459	814.38	67.78	-137.85	881.62	111.78	-105.09	697.24	76.643	-104.02	355.41	326.62	54.378	321.97	960.77	-33.359	347.08	1031.7	-214.18	303.24	248.3	120.97	309.8	245.52	49.766	368.79	1547.8	-31.86	334.24	36.766	48.167	377.51	26.827	86.252	264.51	164.98	45.05	464.89	1002.8	197.11	670.09	29.561	-45.137	335.62	1017.8	-144.68	334.8	792.08	-247.64	185.89	79.916	92.903	133.16	55.437	45.521	285.82	21.952	131.66	206.63	91.814	13.334
